# xmcd
#
# Track frame offsets:
#	300
#	15507
#	30816
#	43080
#	54053
#	72346
#	100379
#	123525
#	143016
#	155385
#	170223
#
# Disc length: 2479 seconds
#
# Revision: 1
# Processed by: cddbd v1.5.1PL2 Copyright (c) Steve Scherf et al.
# Submitted via: audiograbber 1.83.01
#
DISCID=8b09ab0b
DTITLE=Natural Boogie - Hound Dog Taylor
DYEAR=1973
DGENRE=
TTITLE0=Buster's Boogie
TTITLE1=Goodnight Boogie
TTITLE2=Hawaiian Boogie
TTITLE3=One More Time
TTITLE4=Roll Your Moneymaker
TTITLE5=Sadie
TTITLE6=See Me In The Evening
TTITLE7=Sitting At Home Alone
TTITLE8=Take Five
TTITLE9=Talk To My Baby
TTITLE10=You Can't Sit Down
EXTD=
EXTT0=
EXTT1=
EXTT2=
EXTT3=
EXTT4=
EXTT5=
EXTT6=
EXTT7=
EXTT8=
EXTT9=
EXTT10=
PLAYORDER=
